<svg width="56" height="55" viewBox="0 0 56 55" fill="none" xmlns="http://www.w3.org/2000/svg">
<path fill-rule="evenodd" clip-rule="evenodd" d="M27.9803 0.613525C12.6672 0.613525 0.246582 13.0341 0.246582 28.3472C0.246582 40.5977 8.24341 50.9765 19.1327 54.7197C20.4939 54.8899 21.0043 54.0392 21.0043 53.3586C21.0043 52.678 21.0043 50.9765 21.0043 48.5945C13.3478 50.296 11.6463 44.8513 11.6463 44.8513C10.4553 41.6185 8.5837 40.7678 8.5837 40.7678C6.03152 39.0664 8.75385 39.0664 8.75385 39.0664C11.4762 39.2365 13.0075 41.9588 13.0075 41.9588C15.5597 46.2125 19.473 45.0215 21.0043 44.3409C21.1745 42.4693 22.0252 41.2783 22.7058 40.5977C16.5805 39.9171 10.115 37.5351 10.115 26.8159C10.115 23.7533 11.1359 21.3713 13.0075 19.3295C12.8373 18.8191 11.8165 15.9266 13.3478 12.1834C13.3478 12.1834 15.7298 11.5028 21.0043 15.0759C23.2162 14.3953 25.5982 14.2251 27.9803 14.2251C30.3623 14.2251 32.7443 14.5654 34.9562 15.0759C40.2307 11.5028 42.6128 12.1834 42.6128 12.1834C44.1441 15.9266 43.1232 18.8191 42.9531 19.4997C44.6545 21.3713 45.8455 23.9234 45.8455 26.986C45.8455 37.7052 39.38 39.9171 33.2548 40.5977C34.2756 41.4484 35.1264 43.1498 35.1264 45.702C35.1264 49.4452 35.1264 52.3377 35.1264 53.3586C35.1264 54.0392 35.6368 54.8899 36.998 54.7197C48.0574 50.9765 55.8841 40.5977 55.8841 28.3472C55.714 13.0341 43.2933 0.613525 27.9803 0.613525Z" fill="#265185"/>
</svg>
