<svg width="120" height="36" viewBox="0 0 120 36" fill="none" xmlns="http://www.w3.org/2000/svg">
<path d="M35.0162 17.9982C35.0162 8.43776 27.2548 0.687744 17.6803 0.687744C8.10624 0.687744 0.344849 8.43776 0.344849 17.9982C0.344849 27.5582 8.10624 35.3083 17.6803 35.3083C27.2548 35.3083 35.0162 27.5582 35.0162 17.9982Z" fill="#EEF2F5"/>
<mask id="mask0_7410_12" style="mask-type:luminance" maskUnits="userSpaceOnUse" x="0" y="0" width="36" height="36">
<path d="M0 0.343384H35.3646V35.6566H0V0.343384Z" fill="white"/>
</mask>
<g mask="url(#mask0_7410_12)">
<path d="M17.6803 1.03204C8.31168 1.03204 0.68967 8.64288 0.68967 17.9982C0.68967 27.3531 8.31168 34.9639 17.6803 34.9639C27.0489 34.9639 34.6713 27.3531 34.6713 17.9982C34.6713 8.64288 27.0489 1.03204 17.6803 1.03204ZM17.6803 35.6526C12.9575 35.6526 8.51794 33.8161 5.17853 30.4816C1.83912 27.1471 0 22.7136 0 17.9982C0 13.2823 1.83912 8.84884 5.17853 5.51433C8.51794 2.17981 12.9575 0.343384 17.6803 0.343384C22.4031 0.343384 26.8431 2.17981 30.1825 5.51433C33.5215 8.84884 35.361 13.2823 35.361 17.9982C35.361 22.7136 33.5215 27.1471 30.1825 30.4816C26.8431 33.8161 22.4031 35.6526 17.6803 35.6526Z" fill="#1E3796"/>
</g>
<path d="M33.5584 17.9982C33.5584 9.24198 26.4494 2.14343 17.6804 2.14343C8.9113 2.14343 1.80273 9.24198 1.80273 17.9982C1.80273 26.7544 8.9113 33.8525 17.6804 33.8525C26.4494 33.8525 33.5584 26.7544 33.5584 17.9982Z" fill="#F8FAFB"/>
<path d="M32.4158 17.9982C32.4158 9.87188 25.8187 3.28442 17.6805 3.28442C9.54259 3.28442 2.94507 9.87188 2.94507 17.9982C2.94507 26.1241 9.54259 32.7116 17.6805 32.7116C25.8187 32.7116 32.4158 26.1241 32.4158 17.9982Z" fill="#FEFEFE"/>
<path d="M20.3481 12.976H20.4466C20.6425 12.976 20.8015 12.8172 20.8015 12.6216C20.8015 12.4261 20.6425 12.2677 20.4466 12.2677H20.3481C20.1523 12.2677 19.9937 12.4261 19.9937 12.6216C19.9937 12.8172 20.1523 12.976 20.3481 12.976Z" fill="#FFA028"/>
<path d="M20.3481 15.9977H20.4466C20.6425 15.9977 20.8015 15.8394 20.8015 15.6438C20.8015 15.4483 20.6425 15.2895 20.4466 15.2895H20.3481C20.1523 15.2895 19.9937 15.4483 19.9937 15.6438C19.9937 15.8394 20.1523 15.9977 20.3481 15.9977Z" fill="#FFA028"/>
<path d="M20.3481 14.4869H20.4466C20.6425 14.4869 20.8015 14.3282 20.8015 14.1326C20.8015 13.9375 20.6425 13.7787 20.4466 13.7787H20.3481C20.1523 13.7787 19.9937 13.9375 19.9937 14.1326C19.9937 14.3282 20.1523 14.4869 20.3481 14.4869Z" fill="#FFA028"/>
<path d="M23.4615 17.3635H21.4598C21.2639 17.3635 21.1053 17.5218 21.1053 17.7174V20.1949H19.4581C19.2626 20.1949 19.1036 20.3537 19.1036 20.5492V22.7968H17.4567C17.2613 22.7968 17.1023 22.9551 17.1023 23.1507V25.7298C17.1023 25.9257 17.2613 26.0841 17.4567 26.0841C17.6526 26.0841 17.8116 25.9257 17.8116 25.7298V23.505H19.1036V25.7298C19.1036 25.9257 19.2626 26.0841 19.4581 26.0841C19.6539 26.0841 19.8129 25.9257 19.8129 25.7298V23.1527C19.8129 23.1519 19.8129 23.1515 19.8129 23.1507C19.8129 23.1507 19.8129 23.1499 19.8129 23.1495V20.9031H21.1053V25.7298C21.1053 25.9257 21.2639 26.0841 21.4598 26.0841C21.6556 26.0841 21.8146 25.9257 21.8146 25.7298V18.0713H23.1071V25.7298C23.1071 25.9257 23.2657 26.0841 23.4615 26.0841C23.6574 26.0841 23.816 25.9257 23.816 25.7298V17.7174C23.816 17.5218 23.6574 17.3635 23.4615 17.3635Z" fill="#FFA028"/>
<path d="M19.3239 7.66068C19.5198 7.66068 19.6788 7.50232 19.6788 7.30676V7.28676C19.6788 7.0912 19.5198 6.93243 19.3239 6.93243C19.1281 6.93243 18.9695 7.0912 18.9695 7.28676V7.30676C18.9695 7.50232 19.1281 7.66068 19.3239 7.66068Z" fill="#FFA028"/>
<path d="M10.5546 25.2783V23.823C11.0917 23.9394 11.2687 24.1353 11.2687 24.5428C11.2687 24.8764 10.9655 25.1683 10.5546 25.2783ZM9.13202 22.2701C9.13202 21.9366 9.43481 21.6446 9.84572 21.5347V22.9812C9.13283 22.796 9.13202 22.4365 9.13202 22.2701ZM10.5546 23.0999V21.5339C10.8398 21.6094 11.0781 21.7726 11.1942 21.9866C11.2875 22.1585 11.503 22.2225 11.6752 22.1293C11.8474 22.0362 11.9111 21.8214 11.8178 21.649C11.5807 21.2123 11.1053 20.9036 10.5546 20.8096V20.4705C10.5546 20.2749 10.3964 20.1161 10.2002 20.1161C10.0043 20.1161 9.84572 20.2749 9.84572 20.4705V20.8092C9.0347 20.9476 8.42273 21.5499 8.42273 22.2701C8.42273 22.8052 8.67985 23.4671 9.84572 23.7066V25.2795C9.55015 25.2019 9.30664 25.0299 9.1949 24.804C9.10759 24.6288 8.89533 24.5568 8.7195 24.644C8.54408 24.7308 8.47199 24.9432 8.5593 25.1183C8.78879 25.581 9.2738 25.9066 9.84572 26.0029V26.3425C9.84572 26.538 10.0043 26.6964 10.2002 26.6964C10.3964 26.6964 10.5546 26.538 10.5546 26.3425V26.0037C11.3656 25.8654 11.9776 25.2631 11.9776 24.5428C11.9776 23.4843 11.1362 23.2023 10.5546 23.0999Z" fill="#FFA028"/>
<path d="M24.6474 12.2677H21.6728C21.477 12.2677 21.3184 12.4261 21.3184 12.6216C21.3184 12.8172 21.477 12.976 21.6728 12.976H24.6474C24.8432 12.976 25.0022 12.8172 25.0022 12.6216C25.0022 12.4261 24.8432 12.2677 24.6474 12.2677Z" fill="#1E3796"/>
<path d="M23.0061 15.9977C23.2019 15.9977 23.3609 15.8394 23.3609 15.6438C23.3609 15.4483 23.2019 15.2895 23.0061 15.2895H21.6728C21.477 15.2895 21.3184 15.4483 21.3184 15.6438C21.3184 15.8394 21.477 15.9977 21.6728 15.9977H23.0061Z" fill="#1E3796"/>
<path d="M25.0022 14.1326C25.0022 13.9375 24.8432 13.7787 24.6474 13.7787H21.6728C21.477 13.7787 21.3184 13.9375 21.3184 14.1326C21.3184 14.3282 21.477 14.4869 21.6728 14.4869H24.6474C24.8432 14.4869 25.0022 14.3282 25.0022 14.1326Z" fill="#1E3796"/>
<path d="M16.2333 16.0078C15.1976 16.0078 14.3553 15.1668 14.3553 14.1326C14.3553 13.22 15.0121 12.4577 15.8784 12.2917V14.1326C15.8784 14.3281 16.037 14.4869 16.2333 14.4869H18.0768C17.9106 15.3519 17.1472 16.0078 16.2333 16.0078ZM18.0768 13.7786H16.5877V12.2917C17.3391 12.4357 17.9326 13.0284 18.0768 13.7786ZM18.8201 14.1326C18.8201 12.7085 17.6595 11.5495 16.2333 11.5495C14.8063 11.5495 13.646 12.7085 13.646 14.1326C13.646 15.5575 14.8063 16.716 16.2333 16.716C17.6595 16.716 18.8201 15.5575 18.8201 14.1326Z" fill="#1E3796"/>
<path d="M16.7355 26.0841H24.1833C24.3787 26.0841 24.5377 25.9257 24.5377 25.7298C24.5377 25.5342 24.3787 25.3759 24.1833 25.3759H16.7355C16.5392 25.3759 16.3806 25.5342 16.3806 25.7298C16.3806 25.9257 16.5392 26.0841 16.7355 26.0841Z" fill="#1E3796"/>
<path d="M15.0462 9.21796L15.2144 8.80084C15.3978 8.34654 15.8332 8.053 16.3238 8.053H17.0447V8.06899C17.0447 8.26455 17.2037 8.42292 17.3996 8.42292C17.595 8.42292 17.754 8.26455 17.754 8.06899V7.45632C17.754 6.5921 18.4581 5.88864 19.324 5.88864C20.1899 5.88864 20.8944 6.5921 20.8944 7.45632V8.06899C20.8944 8.26455 21.053 8.42292 21.2488 8.42292C21.4447 8.42292 21.6033 8.26455 21.6033 8.06899V8.053H22.3246C22.8148 8.053 23.2501 8.34654 23.4336 8.80084L23.6022 9.21796C23.617 9.25515 23.6054 9.28515 23.593 9.30354C23.5805 9.32194 23.5569 9.34393 23.5169 9.34393H15.1315C15.091 9.34393 15.0678 9.32194 15.055 9.30354C15.043 9.28515 15.031 9.25515 15.0462 9.21796ZM15.1315 10.0522H23.5169C23.7832 10.0522 24.0315 9.92022 24.1805 9.69986C24.3299 9.47911 24.3595 9.19996 24.2598 8.95321L24.0916 8.5357C23.7992 7.81265 23.106 7.34474 22.3246 7.34474H21.6005C21.542 6.14139 20.5435 5.18079 19.324 5.18079C18.1048 5.18079 17.106 6.14139 17.0475 7.34474H16.3238C15.5424 7.34474 14.8487 7.81265 14.5568 8.5361L14.3886 8.95321C14.2888 9.19996 14.3181 9.47911 14.4675 9.69986C14.6164 9.92022 14.8648 10.0522 15.1315 10.0522Z" fill="#1E3796"/>
<path d="M25.9247 8.16217H25.215C25.0191 8.16217 24.8601 8.32094 24.8601 8.5165C24.8601 8.71206 25.0191 8.87043 25.215 8.87043H25.9247C26.2971 8.87043 26.5999 9.17316 26.5999 9.54469V27.1667C26.5999 27.5386 26.2971 27.8413 25.9243 27.8413H14.6224C14.4266 27.8413 14.2676 27.9997 14.2676 28.1953C14.2676 28.3908 14.4266 28.5496 14.6224 28.5496H25.9243C26.688 28.5496 27.3092 27.9293 27.3092 27.1667V9.54469C27.3092 8.78244 26.688 8.16217 25.9247 8.16217Z" fill="#1E3796"/>
<path d="M11.6936 13.8242C11.8898 13.8242 12.048 13.6654 12.048 13.4699V9.54469C12.048 9.17316 12.3512 8.87043 12.7237 8.87043H13.4334C13.6292 8.87043 13.7878 8.71206 13.7878 8.5165C13.7878 8.32094 13.6292 8.16217 13.4334 8.16217H12.7237C11.9603 8.16217 11.3391 8.78244 11.3391 9.54469V13.4699C11.3391 13.6654 11.4977 13.8242 11.6936 13.8242Z" fill="#1E3796"/>
<path d="M10.2378 27.8414H10.1629C7.46794 27.8414 5.35688 26.2725 5.35688 24.2701C5.35688 22.706 6.75905 21.2511 7.88527 20.0818C8.39871 19.5491 8.88333 19.046 9.19171 18.5845C9.26581 18.4733 9.31507 18.3593 9.34591 18.2438H11.0549C11.0881 18.3645 11.1394 18.4857 11.2131 18.6065C11.4802 19.0444 11.95 19.5303 12.4947 20.093C13.6305 21.2667 15.0435 22.7276 15.0435 24.2701C15.0435 26.2725 12.9324 27.8414 10.2378 27.8414ZM7.86364 15.6155C7.6766 15.4287 7.49958 15.252 7.4359 15.1608C7.38584 15.0896 7.38223 15.0264 7.42348 14.9492C7.52401 14.7613 7.86965 14.5637 8.39631 14.5637C8.40953 14.5637 8.42314 14.5641 8.43676 14.5641C9.07076 14.5761 9.45084 14.7805 9.8181 14.9776C10.1966 15.1808 10.5875 15.3911 11.1209 15.2564C11.1894 15.2392 11.2635 15.2196 11.34 15.1988C11.5963 15.1312 12.3773 14.9232 12.5135 15.0436C12.5816 15.1816 12.1703 15.7143 11.9492 16.0006C11.5955 16.4585 11.1898 16.9848 11.0553 17.5355H9.31026C9.08718 16.8364 8.3871 16.1378 7.86364 15.6155ZM15.7528 24.2701C15.7528 22.4413 14.2293 20.8664 13.0045 19.6011C12.4895 19.0684 12.0445 18.6089 11.8186 18.2386C11.8178 18.2366 11.817 18.235 11.8162 18.2334C11.9724 18.1962 12.0886 18.0566 12.0886 17.8894C12.0886 17.7155 11.9624 17.5711 11.7962 17.5415C11.9192 17.22 12.1851 16.8552 12.5111 16.4329C12.9749 15.8322 13.413 15.2648 13.1495 14.7309C12.8243 14.0714 11.8607 14.3278 11.1574 14.5149C11.0837 14.5345 11.0132 14.5533 10.9471 14.5697C10.692 14.6345 10.5098 14.5453 10.1541 14.3541C9.75402 14.1394 9.25539 13.8714 8.45038 13.8563C7.68902 13.8415 7.05582 14.1326 6.79789 14.6161C6.63008 14.9292 6.65131 15.2756 6.85437 15.5663C6.95409 15.7087 7.13432 15.8886 7.36261 16.1166C7.72987 16.4825 8.3074 17.0592 8.55171 17.5523C8.40632 17.5963 8.29939 17.7299 8.29939 17.8894C8.29939 18.0566 8.41634 18.1962 8.57173 18.2334C8.29618 18.6329 7.84882 19.0984 7.37422 19.5907C6.15949 20.8516 4.64758 22.4205 4.64758 24.2701C4.64758 26.6696 7.07024 28.5496 10.1629 28.5496H10.2378C13.3301 28.5496 15.7528 26.6696 15.7528 24.2701Z" fill="#1E3796"/>
<mask id="mask1_7410_12" style="mask-type:luminance" maskUnits="userSpaceOnUse" x="6" y="19" width="8" height="8">
<path d="M6.6748 19.9618H13.6572V26.934H6.6748V19.9618Z" fill="white"/>
</mask>
<g mask="url(#mask1_7410_12)">
<mask id="mask2_7410_12" style="mask-type:luminance" maskUnits="userSpaceOnUse" x="6" y="19" width="8" height="8">
<path d="M10.166 19.9618C8.23798 19.9618 6.6748 21.5227 6.6748 23.4479C6.6748 25.3735 8.23798 26.934 10.166 26.934C12.094 26.934 13.6572 25.3735 13.6572 23.4479C13.6572 21.5227 12.094 19.9618 10.166 19.9618Z" fill="white"/>
</mask>
<g mask="url(#mask2_7410_12)">
<path d="M6.6748 19.9618H13.6572V26.934H6.6748V19.9618Z" fill="white"/>
</g>
</g>
<mask id="mask3_7410_12" style="mask-type:luminance" maskUnits="userSpaceOnUse" x="7" y="20" width="6" height="7">
<path d="M7.82703 20.6508H12.5085V26.1117H7.82703V20.6508Z" fill="white"/>
</mask>
<g mask="url(#mask3_7410_12)">
<path d="M12.4984 24.3529C12.4984 23.9518 12.2705 23.5951 11.918 23.3695C12.1543 23.1504 12.2985 22.8596 12.2985 22.5409C12.2985 21.9818 11.8556 21.5091 11.2504 21.3575V20.9788C11.2504 20.7976 11.0762 20.6509 10.8615 20.6509C10.6468 20.6509 10.4726 20.7976 10.4726 20.9788V21.3067H9.38685V20.9788C9.38685 20.7976 9.21263 20.6509 8.99796 20.6509C8.78329 20.6509 8.60907 20.7976 8.60907 20.9788V21.3067H8.22458C8.00991 21.3067 7.83569 21.4535 7.83569 21.6347C7.83569 21.8158 8.00991 21.9626 8.22458 21.9626H8.61347V24.9308H8.22458C8.00991 24.9308 7.83569 25.0776 7.83569 25.2587C7.83569 25.4399 8.00991 25.5867 8.22458 25.5867H8.60907V25.9146C8.60907 26.0958 8.78329 26.2425 8.99796 26.2425C9.21263 26.2425 9.38685 26.0958 9.38685 25.9146V25.5867H10.4726V25.9146C10.4726 26.0958 10.6468 26.2425 10.8615 26.2425C11.0762 26.2425 11.2504 26.0958 11.2504 25.9146V25.5735C11.9557 25.4855 12.4984 24.9716 12.4984 24.3529ZM9.39126 21.9626H10.8351C11.2132 21.9626 11.5207 22.2222 11.5207 22.5409C11.5207 22.8596 11.2132 23.1188 10.8351 23.1188H9.39126V21.9626ZM11.0353 24.9308H10.8619H10.8615H9.39126V23.7746H11.0353C11.4134 23.7746 11.7206 24.0342 11.7206 24.3529C11.7206 24.6717 11.4134 24.9308 11.0353 24.9308Z" fill="#FFA028"/>
</g>
<path d="M40.1191 10.3354C40.1191 12.8937 41.4072 15.0325 45.0193 15.0325H50.171V13.4248H47.7912C49.1073 12.8517 49.8911 11.6496 49.8911 9.90191C49.8911 7.80514 48.6171 5.49841 45.0193 5.49841C41.4072 5.49841 40.1191 7.80514 40.1191 10.3354ZM42.3451 10.2654C42.3451 8.32223 42.9331 7.23206 45.0193 7.23206C47.1052 7.23206 47.6931 8.32223 47.6931 10.2654C47.6931 12.1806 47.1052 13.2988 45.0193 13.2988C42.9331 13.2988 42.3451 12.1806 42.3451 10.2654Z" fill="#1E3796"/>
<path d="M56.5387 8.04266V11.216C56.5387 12.7957 55.8947 13.5647 54.8586 13.5647C53.9767 13.5647 53.4865 13.1172 53.4865 12.0127V8.04266H51.4147V12.3206C51.4147 14.1518 52.2265 15.256 54.0604 15.256C55.3204 15.256 56.1046 14.6269 56.5387 13.6903V15.0324H58.6105V8.04266H56.5387Z" fill="#1E3796"/>
<path d="M60.1345 7.12008H62.3886V5.73596H60.1345V7.12008ZM60.2322 15.0325H62.3045V8.04269H60.2322V15.0325Z" fill="#1E3796"/>
<path d="M63.6194 11.5376C63.6194 13.4948 64.7676 15.256 67.4975 15.256C69.9614 15.256 71.1236 13.7883 71.1657 12.1527H69.1496C69.0655 12.9913 68.5756 13.6344 67.4694 13.6344C66.3496 13.6344 65.7056 13.1173 65.7056 11.5376C65.7056 9.97191 66.3777 9.44082 67.4975 9.44082C68.5616 9.44082 69.0374 10.0139 69.1075 10.8805H71.1236C71.0676 9.16088 69.8777 7.81915 67.4554 7.81915C64.7396 7.81915 63.6194 9.58039 63.6194 11.5376Z" fill="#1E3796"/>
<path d="M77.6454 15.0325H80.1093L76.9313 11.0205L79.9415 8.0987V8.04271H77.4636L75.2376 10.3774C74.9993 10.643 74.7474 10.9645 74.5095 11.3V5.24689H72.4373V15.0325H74.5095V13.3548L75.6153 12.2926L77.6454 15.0325Z" fill="#1E3796"/>
<path d="M47.5675 28.1383H49.7094L46.4333 18.8418H43.1852L39.9094 28.1383H42.0513L42.7234 26.2371H46.8954L47.5675 28.1383ZM43.2973 24.6014L44.8092 20.3099L46.3215 24.6014H43.2973Z" fill="#1E3796"/>
<path d="M50.6305 24.6434C50.6305 26.6006 51.7787 28.3618 54.5086 28.3618C56.9725 28.3618 58.1348 26.8941 58.1768 25.2584H56.1607C56.0766 26.0971 55.5867 26.7401 54.4805 26.7401C53.3607 26.7401 52.7167 26.223 52.7167 24.6434C52.7167 23.0777 53.3888 22.5466 54.5086 22.5466C55.5727 22.5466 56.0485 23.1197 56.1186 23.9863H58.1348C58.0787 22.2667 56.8888 20.9249 54.4665 20.9249C51.7507 20.9249 50.6305 22.6862 50.6305 24.6434Z" fill="#1E3796"/>
<path d="M59.1545 24.6434C59.1545 26.6006 60.3028 28.3618 63.0326 28.3618C65.4965 28.3618 66.6588 26.8941 66.7009 25.2584H64.6847C64.6006 26.0971 64.1108 26.7401 63.0046 26.7401C61.8848 26.7401 61.2408 26.223 61.2408 24.6434C61.2408 23.0777 61.9128 22.5466 63.0326 22.5466C64.0968 22.5466 64.5726 23.1197 64.6427 23.9863H66.6588C66.6027 22.2667 65.4128 20.9249 62.9906 20.9249C60.2748 20.9249 59.1545 22.6862 59.1545 24.6434Z" fill="#1E3796"/>
<path d="M71.5566 28.3618C74.3565 28.3618 75.4346 26.5726 75.4346 24.6294C75.4346 22.7142 74.3565 20.9249 71.5566 20.9249C68.7706 20.9249 67.6785 22.7002 67.6785 24.6294C67.6785 26.5866 68.7706 28.3618 71.5566 28.3618ZM69.7647 24.6434C69.7647 23.0917 70.2966 22.5466 71.5566 22.5466C72.8306 22.5466 73.3628 23.0917 73.3628 24.6434C73.3628 26.195 72.8306 26.7401 71.5566 26.7401C70.2966 26.7401 69.7647 26.195 69.7647 24.6434Z" fill="#1E3796"/>
<path d="M81.7886 21.1486V24.3219C81.7886 25.9016 81.1446 26.6706 80.1085 26.6706C79.2266 26.6706 78.7364 26.2231 78.7364 25.1185V21.1486H76.6646V25.4265C76.6646 27.2577 77.4764 28.3619 79.3103 28.3619C80.5703 28.3619 81.3545 27.7328 81.7886 26.7962V28.1383H83.8604V21.1486H81.7886Z" fill="#1E3796"/>
<path d="M90.0744 20.9249C88.8004 20.9249 88.0026 21.568 87.5544 22.5186V21.1485H85.4822V28.1382H87.5544V24.9649C87.5544 23.3012 88.1704 22.6022 89.2766 22.6022C90.1304 22.6022 90.6062 23.0497 90.6062 24.1679V28.1382H92.6785V23.8467C92.6785 22.0151 91.9083 20.9249 90.0744 20.9249Z" fill="#1E3796"/>
<path d="M97.3941 28.1383H98.7101V26.4886H96.8903V22.7142H98.9064V21.1485H96.8903V19.4849H95.8401L94.9863 21.1345L93.5444 21.7216V22.7142H94.8184V25.622C94.8184 27.2857 95.4064 28.1383 97.3941 28.1383Z" fill="#1E3796"/>
<path d="M99.9829 20.2259H102.237V18.8418H99.9829V20.2259ZM100.081 28.1383H102.153V21.1485H100.081V28.1383Z" fill="#1E3796"/>
<path d="M108.354 20.9249C107.08 20.9249 106.282 21.568 105.834 22.5186V21.1485H103.762V28.1382H105.834V24.9649C105.834 23.3012 106.45 22.6022 107.556 22.6022C108.41 22.6022 108.886 23.0497 108.886 24.1679V28.1382H110.958V23.8467C110.958 22.0151 110.188 20.9249 108.354 20.9249Z" fill="#1E3796"/>
<path d="M117.928 21.1485V22.0711C117.452 21.3581 116.668 20.939 115.492 20.939C113.21 20.939 112.23 22.4906 112.23 24.4478C112.23 26.3631 113.21 27.9287 115.492 27.9287C116.668 27.9287 117.452 27.5372 117.928 26.8242V28.0963C117.928 29.2009 117.382 29.634 116.164 29.634C115.002 29.634 114.512 29.1589 114.428 28.4458H112.398C112.496 30.0115 113.686 31.0881 116.08 31.0881C118.922 31.0881 120 29.9975 120 27.8587V21.1485H117.928ZM116.15 26.4046C114.834 26.4046 114.302 25.8736 114.302 24.4758C114.302 23.0777 114.834 22.5466 116.15 22.5466C117.438 22.5466 117.928 23.1477 117.928 24.4758C117.928 25.7896 117.438 26.4046 116.15 26.4046Z" fill="#1E3796"/>
</svg>
