<svg width="57" height="57" viewBox="0 0 57 57" fill="none" xmlns="http://www.w3.org/2000/svg">
<path fill-rule="evenodd" clip-rule="evenodd" d="M28.6017 56.4964C13.2378 56.4964 0.782959 44.0415 0.782959 28.6776C0.782959 13.3138 13.2378 0.858887 28.6017 0.858887C43.9656 0.858887 56.4205 13.3138 56.4205 28.6776C56.4205 44.0415 43.9656 56.4964 28.6017 56.4964ZM29.8046 21.7358C27.3131 22.7721 22.3336 24.917 14.8661 28.1705C13.6535 28.6527 13.0182 29.1244 12.9604 29.5857C12.8627 30.3653 13.8389 30.6722 15.1683 31.0902C15.3491 31.1471 15.5365 31.206 15.7286 31.2685C17.0365 31.6936 18.7958 32.191 19.7104 32.2107C20.5401 32.2287 21.466 31.8866 22.4884 31.1846C29.4655 26.4749 33.0671 24.0943 33.2932 24.043C33.4528 24.0068 33.6738 23.9613 33.8236 24.0944C33.9734 24.2275 33.9587 24.4796 33.9428 24.5473C33.8461 24.9596 30.014 28.5222 28.0309 30.3659C27.4127 30.9406 26.9742 31.3483 26.8845 31.4414C26.6837 31.65 26.479 31.8473 26.2823 32.0369C25.0673 33.2083 24.1561 34.0866 26.3328 35.5211C27.3788 36.2104 28.2159 36.7804 29.0509 37.3491C29.9629 37.9701 30.8725 38.5896 32.0494 39.361C32.3492 39.5576 32.6356 39.7617 32.9145 39.9606C33.9758 40.7172 34.9293 41.397 36.1073 41.2886C36.7918 41.2256 37.4988 40.5819 37.8579 38.6623C38.7065 34.1258 40.3746 24.2964 40.7601 20.2459C40.7938 19.891 40.7513 19.4368 40.7172 19.2375C40.6831 19.0381 40.6118 18.7541 40.3526 18.5438C40.0457 18.2947 39.5719 18.2422 39.36 18.2458C38.3966 18.2629 36.9184 18.7769 29.8046 21.7358Z" fill="#265185"/>
</svg>
