<svg width="57" height="46" viewBox="0 0 57 46" fill="none" xmlns="http://www.w3.org/2000/svg">
<path d="M56.3477 5.29072C54.2613 6.33393 52.1749 6.68166 49.7408 7.0294C52.1749 5.63846 53.9136 3.55205 54.609 0.770175C52.5226 2.16111 50.0885 2.85658 47.3066 3.55205C45.2202 1.46564 42.0906 0.074707 38.961 0.074707C31.6586 0.074707 26.0948 7.0294 27.8335 13.9841C18.4447 13.6364 10.099 9.1158 4.18755 2.16112C1.05794 7.37713 2.79661 13.9841 7.66489 17.4614C5.92622 17.4614 4.18755 16.766 2.44888 16.0705C2.44888 21.2865 6.27396 26.1548 11.49 27.5457C9.7513 27.8935 8.01263 28.2412 6.27396 27.8935C7.6649 32.414 11.8377 35.8914 17.0537 35.8914C12.8809 39.021 6.62169 40.7596 0.710205 40.0642C5.92622 43.1938 11.8377 45.2802 18.0969 45.2802C39.3087 45.2802 51.1317 27.5457 50.4362 11.2022C52.8704 9.81127 54.9568 7.72486 56.3477 5.29072Z" fill="#265185"/>
</svg>
