<svg width="70" height="77" viewBox="0 0 70 77" fill="none" xmlns="http://www.w3.org/2000/svg">
<g filter="url(#filter0_b_3442_151)">
<path d="M0.848511 41.6989C0.848511 22.6776 16.3586 7.25781 35.3799 7.25781C54.4011 7.25781 69.9112 22.6776 69.9112 41.6989C69.9112 60.7201 54.4011 76.1399 35.3799 76.1399C16.3586 76.1399 0.848511 60.7201 0.848511 41.6989Z" fill="url(#paint0_radial_3442_151)"/>
<path d="M1.28015 41.6989C1.28015 22.9175 16.5955 7.68945 35.3799 7.68945C54.1642 7.68945 69.4796 22.9175 69.4796 41.6989C69.4796 60.4803 54.1642 75.7083 35.3799 75.7083C16.5955 75.7083 1.28015 60.4803 1.28015 41.6989Z" stroke="url(#paint1_radial_3442_151)" stroke-width="0.863284"/>
<path d="M1.28015 41.6989C1.28015 22.9175 16.5955 7.68945 35.3799 7.68945C54.1642 7.68945 69.4796 22.9175 69.4796 41.6989C69.4796 60.4803 54.1642 75.7083 35.3799 75.7083C16.5955 75.7083 1.28015 60.4803 1.28015 41.6989Z" stroke="url(#paint2_radial_3442_151)" stroke-width="0.863284"/>
<path d="M1.28015 41.6989C1.28015 22.9175 16.5955 7.68945 35.3799 7.68945C54.1642 7.68945 69.4796 22.9175 69.4796 41.6989C69.4796 60.4803 54.1642 75.7083 35.3799 75.7083C16.5955 75.7083 1.28015 60.4803 1.28015 41.6989Z" stroke="url(#paint3_radial_3442_151)" stroke-width="0.863284"/>
</g>
<g filter="url(#filter1_f_3442_151)">
<ellipse cx="35.1584" cy="25.803" rx="21.9141" ry="14.1297" fill="url(#paint4_radial_3442_151)" fill-opacity="0.2"/>
</g>
<path d="M31.0825 31.0461C30.5126 31.0461 29.9661 31.2725 29.5632 31.6754C29.1602 32.0784 28.9338 32.6249 28.9338 33.1947C28.9338 33.7646 29.1602 34.3111 29.5632 34.714C29.9661 35.117 30.5126 35.3433 31.0825 35.3433H43.0846L40.3065 38.1215C39.9151 38.5267 39.6985 39.0695 39.7034 39.6328C39.7083 40.1962 39.9343 40.7351 40.3327 41.1335C40.731 41.5318 41.2699 41.7578 41.8333 41.7627C42.3966 41.7676 42.9394 41.551 43.3446 41.1596L49.7905 34.7138C50.1933 34.3109 50.4196 33.7645 50.4196 33.1947C50.4196 32.625 50.1933 32.0786 49.7905 31.6757L43.3446 25.2298C43.1464 25.0246 42.9093 24.8609 42.6472 24.7483C42.3851 24.6357 42.1031 24.5764 41.8178 24.5739C41.5325 24.5715 41.2496 24.6258 40.9855 24.7339C40.7215 24.8419 40.4816 25.0014 40.2798 25.2032C40.0781 25.4049 39.9186 25.6448 39.8105 25.9089C39.7025 26.1729 39.6481 26.4558 39.6506 26.7411C39.6531 27.0264 39.7124 27.3084 39.825 27.5705C39.9376 27.8327 40.1013 28.0697 40.3065 28.2679L43.0846 31.0461H31.0825Z" fill="#FFA028"/>
<path d="M39.6769 52.5323C40.2468 52.5323 40.7933 52.3059 41.1962 51.903C41.5992 51.5 41.8256 50.9535 41.8256 50.3837C41.8256 49.8138 41.5992 49.2673 41.1962 48.8644C40.7933 48.4614 40.2468 48.2351 39.6769 48.2351H27.6748L30.4529 45.4569C30.6581 45.2587 30.8218 45.0216 30.9344 44.7595C31.047 44.4973 31.1063 44.2154 31.1088 43.9301C31.1113 43.6448 31.0569 43.3619 30.9489 43.0978C30.8408 42.8337 30.6813 42.5939 30.4796 42.3921C30.2778 42.1904 30.0379 42.0308 29.7739 41.9228C29.5098 41.8148 29.2269 41.7604 28.9416 41.7629C28.6563 41.7654 28.3744 41.8246 28.1122 41.9372C27.8501 42.0498 27.613 42.2135 27.4148 42.4187L20.9689 48.8646C20.5661 49.2675 20.3398 49.8139 20.3398 50.3837C20.3398 50.9534 20.5661 51.4998 20.9689 51.9027L27.4148 58.3486C27.82 58.74 28.3628 58.9566 28.9261 58.9517C29.4895 58.9468 30.0284 58.7208 30.4268 58.3224C30.8251 57.924 31.0511 57.3851 31.056 56.8218C31.0609 56.2584 30.8443 55.7157 30.4529 55.3104L27.6748 52.5323H39.6769Z" fill="#FFA028"/>
<defs>
<filter id="filter0_b_3442_151" x="-3.46791" y="2.94139" width="77.6956" height="77.5149" filterUnits="userSpaceOnUse" color-interpolation-filters="sRGB">
<feFlood flood-opacity="0" result="BackgroundImageFix"/>
<feGaussianBlur in="BackgroundImageFix" stdDeviation="2.15821"/>
<feComposite in2="SourceAlpha" operator="in" result="effect1_backgroundBlur_3442_151"/>
<feBlend mode="normal" in="SourceGraphic" in2="effect1_backgroundBlur_3442_151" result="shape"/>
</filter>
<filter id="filter1_f_3442_151" x="2.06082" y="0.489898" width="66.1951" height="50.6262" filterUnits="userSpaceOnUse" color-interpolation-filters="sRGB">
<feFlood flood-opacity="0" result="BackgroundImageFix"/>
<feBlend mode="normal" in="SourceGraphic" in2="BackgroundImageFix" result="shape"/>
<feGaussianBlur stdDeviation="5.59172" result="effect1_foregroundBlur_3442_151"/>
</filter>
<radialGradient id="paint0_radial_3442_151" cx="0" cy="0" r="1" gradientUnits="userSpaceOnUse" gradientTransform="translate(6.62564 7.25781) rotate(47.9449) scale(103.103 74.9116)">
<stop stop-color="white" stop-opacity="0.36"/>
<stop offset="1" stop-color="white" stop-opacity="0"/>
</radialGradient>
<radialGradient id="paint1_radial_3442_151" cx="0" cy="0" r="1" gradientUnits="userSpaceOnUse" gradientTransform="translate(-35.9244 14.3046) rotate(35.0407) scale(79.5526 46.9525)">
<stop stop-color="white"/>
<stop offset="1" stop-color="white" stop-opacity="0.06"/>
</radialGradient>
<radialGradient id="paint2_radial_3442_151" cx="0" cy="0" r="1" gradientUnits="userSpaceOnUse" gradientTransform="translate(90.1302 53.3578) rotate(161.385) scale(57.7043 39.0018)">
<stop stop-color="#F89D35"/>
<stop offset="1" stop-color="#5D98AE" stop-opacity="0.56"/>
</radialGradient>
<radialGradient id="paint3_radial_3442_151" cx="0" cy="0" r="1" gradientUnits="userSpaceOnUse" gradientTransform="translate(36.1318 -8.48497) rotate(47.2149) scale(38.5396 27.7009)">
<stop stop-color="#537C9C"/>
<stop offset="1" stop-color="white" stop-opacity="0"/>
</radialGradient>
<radialGradient id="paint4_radial_3442_151" cx="0" cy="0" r="1" gradientUnits="userSpaceOnUse" gradientTransform="translate(35.1584 11.6733) rotate(90) scale(20.9404 32.4811)">
<stop stop-color="white"/>
<stop offset="1" stop-color="white" stop-opacity="0"/>
</radialGradient>
</defs>
</svg>
