<svg width="189" height="188" viewBox="0 0 189 188" fill="none" xmlns="http://www.w3.org/2000/svg">
<path d="M186.228 158.877L185.683 27.3973L162.144 2.37057L93.158 2.26208H77.6341C74.8773 2.26208 72.6648 4.61926 72.6648 7.52129V158.877C72.6648 161.779 74.8773 164.137 77.6341 164.137H181.258C181.585 164.137 181.911 164.1 182.238 164.028C184.632 163.448 186.264 161.307 186.228 158.877Z" fill="#4A6792"/>
<mask id="mask0_3442_52" style="mask-type:luminance" maskUnits="userSpaceOnUse" x="70" y="0" width="119" height="167">
<path d="M70.3667 0.0131836H188.512V166.405H70.3667V0.0131836Z" fill="white"/>
</mask>
<g mask="url(#mask0_3442_52)">
<path d="M181.258 166.313H77.634C73.6802 166.313 70.4883 162.976 70.4883 158.878V7.52172C70.4883 3.38656 73.6802 0.0499878 77.634 0.0499878H93.1572L162.144 0.195243C162.761 0.195243 163.304 0.448979 163.739 0.88413L187.243 25.9109C187.642 26.3098 187.86 26.8535 187.86 27.3977L188.403 158.878C188.403 162.396 185.973 165.479 182.673 166.168C182.201 166.277 181.73 166.313 181.258 166.313ZM77.634 4.40211C76.0742 4.40211 74.841 5.7805 74.841 7.52172V158.878C74.841 160.583 76.0742 161.961 77.634 161.961H181.766C183.144 161.598 184.087 160.329 184.051 158.914L183.507 28.268L161.201 4.54737L93.1572 4.43889L77.634 4.40211Z" fill="black"/>
</g>
<path d="M185.683 27.3979H162.144V2.37122L185.683 27.3979Z" fill="#BCBEC0"/>
<path d="M185.683 29.5741H162.144C160.947 29.5741 159.967 28.5947 159.967 27.3978V2.37104C159.967 1.46457 160.512 0.666591 161.346 0.339922C162.18 0.0138644 163.122 0.23144 163.703 0.884167L187.243 25.9109C188.077 26.7812 188.004 28.1596 187.134 28.9937C186.735 29.3566 186.227 29.5741 185.683 29.5741ZM164.319 25.2214H180.641L164.319 7.88459V25.2214Z" fill="black"/>
<path d="M2.40918 172.226V113.577C2.40918 112.271 2.84433 111.001 3.64231 109.986L16.2642 96.2031V140.126C16.2642 143.174 18.6943 145.604 21.7409 145.64H68.0582C67.7321 147.417 67.0065 150.718 66.2814 152.241C63.0895 158.987 56.2705 162.542 56.2705 162.542V172.226" fill="#EFCDB1"/>
<path d="M58.4467 172.225H54.094V161.199L55.291 160.583C55.3271 160.583 61.4934 157.282 64.3225 151.333C64.7577 150.209 65.1205 149.012 65.3742 147.815H21.7408C17.4971 147.779 14.0883 144.369 14.0883 140.126V101.824L5.34661 111.363C4.8753 112.016 4.58541 112.778 4.58541 113.576V172.225H0.232666V113.576C0.232666 111.798 0.849233 110.058 1.93711 108.643L2.04621 108.498L18.4404 90.617V140.126C18.4404 141.939 19.9273 143.427 21.7408 143.463H70.7057L70.1983 146.038C69.9084 147.561 69.1466 151.297 68.2395 153.183C65.5918 158.805 60.6954 162.359 58.4467 163.774V172.225Z" fill="black"/>
<path d="M175.346 29.5374V140.125C175.346 143.173 172.88 145.639 169.833 145.639H21.7405C18.6938 145.603 16.2637 143.173 16.2637 140.125V29.5374C16.2998 26.5269 18.7299 24.0968 21.7405 24.0606H169.833C172.88 24.0606 175.31 26.4907 175.346 29.5374Z" fill="#D1D3D4"/>
<path d="M169.833 147.816H21.7407C17.497 147.779 14.0881 144.37 14.0881 140.126V29.5384C14.1243 25.3309 17.5338 21.9214 21.7407 21.8853H169.833C174.077 21.8853 177.486 25.2948 177.522 29.5384V140.126C177.522 144.37 174.077 147.816 169.833 147.816ZM21.7407 26.2374C19.9271 26.2374 18.4403 27.7249 18.4403 29.5384V140.126C18.4403 141.94 19.9271 143.427 21.7407 143.463H169.833C171.683 143.463 173.17 141.977 173.17 140.126V29.5384C173.134 27.7249 171.647 26.2374 169.833 26.2374H21.7407Z" fill="black"/>
<path d="M25.6221 32.6564H165.299V125.4H25.6221V32.6564Z" fill="#73C9DF"/>
<path d="M167.476 127.577H23.446V30.4811H167.476V127.577ZM27.7982 123.225H163.123V34.8338H27.7982V123.225Z" fill="black"/>
<path d="M83.5459 133.634H96.2045V137.986H83.5459V133.634Z" fill="black"/>
<path d="M18.5125 161.743C22.1035 160.111 28.2697 157.754 31.4611 147.344C33.3114 141.251 31.6425 132.183 31.6425 132.183L42.5599 116.877C44.6639 114.084 43.9383 110.204 41.0007 108.136C38.0986 106.068 34.0003 106.577 31.86 109.26L17.896 125.545C17.896 125.545 12.4192 127.54 9.88062 134.25" fill="#EFCDB1"/>
<path d="M19.4195 163.737L17.6059 159.784L18.1502 159.53C21.7043 157.898 26.6007 155.685 29.3575 146.691C31.0619 141.178 29.5027 132.69 29.5027 132.581L29.3213 131.675L40.8191 115.57C41.4357 114.736 41.6894 113.721 41.5442 112.705C41.3628 111.581 40.71 110.565 39.7668 109.912C37.7725 108.498 34.9795 108.824 33.5288 110.638H33.492L19.2019 127.395L18.6577 127.576C18.4763 127.649 14.0512 129.389 11.9116 135.011L7.84937 133.488C9.3724 129.208 12.5282 125.726 16.5904 123.731L30.1916 107.881C33.093 104.29 38.389 103.638 42.2698 106.358C44.1919 107.664 45.4979 109.731 45.8608 112.016C46.1868 114.192 45.6432 116.368 44.3371 118.146L33.9278 132.726C34.3268 135.302 35.1971 142.592 33.5288 147.996C30.1916 158.841 23.7716 161.743 19.927 163.484L19.4195 163.737Z" fill="black"/>
<path d="M2.40918 172.225H56.2705V185.646H2.40918V172.225Z" fill="#4A6792"/>
<mask id="mask1_3442_52" style="mask-type:luminance" maskUnits="userSpaceOnUse" x="0" y="170" width="59" height="18">
<path d="M0.232422 170.014H58.5991V187.822H0.232422V170.014Z" fill="white"/>
</mask>
<g mask="url(#mask1_3442_52)">
<path d="M56.2701 187.821H2.40879C1.21182 187.821 0.232422 186.842 0.232422 185.646V172.225C0.232422 171.028 1.21182 170.049 2.40879 170.049H56.2701C57.4671 170.049 58.4465 171.028 58.4465 172.225V185.646C58.4465 186.842 57.4671 187.821 56.2701 187.821ZM4.58516 183.469H54.0937V174.402H4.58516V183.469Z" fill="black"/>
</g>
<path d="M132.402 172.878V165.732L105.417 146.545C105.417 146.545 100.992 142.846 102.697 139.69C106.215 133.271 113.65 136.462 113.65 136.462L132.402 145.856L131.822 103.202C131.786 100.156 134.216 97.6527 137.262 97.6166C137.298 97.6166 137.298 97.6166 137.335 97.6166H140.236C143.283 97.6166 145.75 100.083 145.786 103.13L145.894 124.928L176.216 125.327C181.838 125.4 186.336 129.934 186.336 135.556V172.878" fill="#EFCDB1"/>
<path d="M188.512 172.878H184.16V135.556C184.16 131.131 180.605 127.54 176.18 127.504L143.755 127.069L143.61 103.167C143.61 101.317 142.086 99.7934 140.236 99.7934H137.335C135.485 99.7934 133.998 101.28 133.998 103.131V103.167L134.651 149.411L112.743 138.421C111.982 138.131 107.013 136.354 104.619 140.743C104.002 141.903 105.925 144.116 106.759 144.805L134.578 164.609V172.878H130.226V166.858L104.111 148.251H104.038C101.863 146.437 98.7792 142.411 100.81 138.675C104.329 132.256 111.293 133.126 114.484 134.504H114.63L130.19 142.302L129.645 103.239C129.573 98.9954 132.982 95.5136 137.226 95.4413C137.262 95.4413 137.299 95.4413 137.335 95.4413H140.236C144.48 95.4413 147.926 98.8869 147.962 103.131L148.071 122.789L176.253 123.152C183.035 123.26 188.476 128.773 188.512 135.556V172.878Z" fill="black"/>
<path d="M143.718 125.038H148.07V136.463H143.718V125.038Z" fill="black"/>
<path d="M157.646 125.038H161.998V136.463H157.646V125.038Z" fill="black"/>
<path d="M170.921 125.038H175.273V136.463H170.921V125.038Z" fill="black"/>
<path d="M132.474 172.225H186.336V185.646H132.474V172.225Z" fill="#4A6792"/>
<mask id="mask2_3442_52" style="mask-type:luminance" maskUnits="userSpaceOnUse" x="130" y="170" width="59" height="18">
<path d="M130.146 170.014H188.512V187.822H130.146V170.014Z" fill="white"/>
</mask>
<g mask="url(#mask2_3442_52)">
<path d="M186.336 187.821H132.475C131.278 187.821 130.298 186.842 130.298 185.646V172.225C130.298 171.028 131.278 170.049 132.475 170.049H186.336C187.533 170.049 188.512 171.028 188.512 172.225V185.646C188.512 186.842 187.533 187.821 186.336 187.821ZM134.651 183.469H184.16V174.402H134.651V183.469Z" fill="black"/>
</g>
<path d="M32.2959 65.0101H64.141V69.3629H32.2959V65.0101Z" fill="black"/>
<path d="M36.7207 52.8955H41.0734V67.1862H36.7207V52.8955Z" fill="black"/>
<path d="M55.6174 55.1801H59.9696V65.2271H55.6174V55.1801Z" fill="black"/>
<path d="M46.0427 46.2222H50.3949V67.1506H46.0427V46.2222Z" fill="black"/>
<path d="M80.2817 109.406H112.127V113.758H80.2817V109.406Z" fill="black"/>
<path d="M84.7063 101.135H89.0584V111.617H84.7063V101.135Z" fill="black"/>
<path d="M103.639 89.5287H107.992V109.659H103.639V89.5287Z" fill="black"/>
<path d="M94.0281 95.5859H98.3802V111.581H94.0281V95.5859Z" fill="black"/>
<path d="M80.2816 68.8904L76.8721 66.2066L89.6392 49.8847L97.5822 58.7348L105.235 47.8898L108.79 50.3928L97.9812 65.7353L89.8567 56.6676L80.2816 68.8904Z" fill="black"/>
<path d="M108.101 57.1031L106.179 50.357L98.018 51.155L97.5823 46.8384L109.334 45.6776L112.272 55.9061L108.101 57.1031Z" fill="black"/>
<path d="M155.724 56.7045C155.76 64.7566 149.231 71.2851 141.179 71.3213C133.127 71.3575 126.599 64.829 126.562 56.7768C126.526 48.7253 133.055 42.1962 141.107 42.16C141.143 42.16 141.143 42.16 141.179 42.16V56.7045H155.724Z" fill="#FDC00F"/>
<path d="M141.18 73.4608C131.93 73.896 124.096 66.7509 123.661 57.5018C123.226 48.2527 130.371 40.4181 139.62 39.983C140.128 39.9468 140.671 39.9468 141.18 39.983C142.377 39.983 143.356 40.9624 143.356 42.1594V54.5275H155.724C156.921 54.5275 157.9 55.5069 157.9 56.7038C157.9 65.9529 150.429 73.4247 141.18 73.4608ZM139.003 44.5171C132.257 45.7141 127.76 52.1335 128.92 58.8802C130.081 65.6263 136.537 70.1237 143.283 68.9635C148.434 68.0564 152.46 64.0303 153.366 58.8802H141.18C139.983 58.8802 139.003 57.9008 139.003 56.7038V44.5171Z" fill="black"/>
<path d="M155.724 56.7045H141.179V42.16C149.195 42.16 155.724 48.6885 155.724 56.7045Z" fill="#D22732"/>
<path d="M155.724 58.8807H141.179C139.982 58.8807 139.003 57.9013 139.003 56.7044V42.1599C138.967 40.9629 139.91 40.0197 141.107 39.9835C141.143 39.9835 141.143 39.9835 141.179 39.9835C150.392 40.0197 157.863 47.4914 157.9 56.7044C157.9 57.9013 156.921 58.8807 155.724 58.8807ZM143.356 54.528H153.366C152.423 49.4502 148.433 45.4603 143.356 44.5177V54.528Z" fill="black"/>
<path d="M26.8184 76.835H165.299V81.1871H26.8184V76.835Z" fill="black"/>
<path d="M116.77 32.6564H121.122V125.037H116.77V32.6564Z" fill="black"/>
<path d="M70.488 32.6564H74.8408V125.037H70.488V32.6564Z" fill="black"/>
<path d="M40.4783 106.217L55.7588 91.9178L58.7332 95.0956L43.452 109.396L40.4783 106.217Z" fill="black"/>
<path d="M60.9129 107.156C60.9129 107.299 60.9061 107.441 60.892 107.583C60.8779 107.725 60.8571 107.866 60.8295 108.006C60.8013 108.145 60.767 108.283 60.7253 108.42C60.6843 108.556 60.6358 108.69 60.5813 108.822C60.5268 108.954 60.4661 109.082 60.3993 109.208C60.3319 109.334 60.2583 109.456 60.1792 109.575C60.1002 109.693 60.0156 109.807 59.9249 109.918C59.8348 110.027 59.7392 110.133 59.6381 110.234C59.5375 110.335 59.4315 110.43 59.3218 110.521C59.2115 110.612 59.0969 110.696 58.9786 110.775C58.8603 110.854 58.7377 110.928 58.6121 110.995C58.4864 111.062 58.3577 111.123 58.226 111.177C58.0942 111.232 57.9606 111.28 57.8239 111.321C57.6872 111.363 57.5493 111.397 57.4096 111.425C57.2699 111.453 57.1289 111.474 56.9873 111.488C56.8451 111.502 56.7029 111.509 56.5607 111.509C56.4179 111.509 56.2758 111.502 56.1336 111.488C55.992 111.474 55.851 111.453 55.7113 111.425C55.5715 111.397 55.4336 111.363 55.297 111.321C55.1609 111.28 55.0267 111.232 54.8949 111.177C54.7631 111.123 54.6344 111.062 54.5088 110.995C54.3832 110.928 54.2612 110.854 54.1423 110.775C54.024 110.696 53.9094 110.612 53.7991 110.521C53.6894 110.43 53.5833 110.335 53.4828 110.234C53.3823 110.133 53.2867 110.027 53.196 109.918C53.1053 109.807 53.0207 109.693 52.9416 109.575C52.8626 109.456 52.789 109.334 52.7222 109.208C52.6548 109.082 52.5941 108.954 52.5396 108.822C52.485 108.69 52.4366 108.556 52.3956 108.42C52.3539 108.283 52.3196 108.145 52.2914 108.006C52.2638 107.866 52.2429 107.725 52.2288 107.583C52.2147 107.441 52.208 107.299 52.208 107.156C52.208 107.014 52.2147 106.872 52.2288 106.73C52.2429 106.588 52.2638 106.447 52.2914 106.307C52.3196 106.167 52.3539 106.03 52.3956 105.893C52.4366 105.756 52.485 105.623 52.5396 105.491C52.5941 105.359 52.6548 105.23 52.7222 105.105C52.789 104.979 52.8626 104.857 52.9416 104.738C53.0207 104.62 53.1053 104.505 53.196 104.395C53.2867 104.285 53.3823 104.179 53.4828 104.079C53.5833 103.978 53.6894 103.882 53.7991 103.792C53.9094 103.701 54.024 103.617 54.1423 103.538C54.2612 103.459 54.3832 103.385 54.5088 103.318C54.6344 103.251 54.7631 103.189 54.8949 103.135C55.0267 103.08 55.1609 103.033 55.297 102.991C55.4336 102.95 55.5715 102.916 55.7113 102.887C55.851 102.86 55.992 102.839 56.1336 102.825C56.2758 102.811 56.4179 102.804 56.5607 102.804C56.7029 102.804 56.8451 102.811 56.9873 102.825C57.1289 102.839 57.2699 102.86 57.4096 102.887C57.5493 102.916 57.6872 102.95 57.8239 102.991C57.9606 103.033 58.0942 103.08 58.226 103.135C58.3577 103.189 58.4864 103.251 58.6121 103.318C58.7377 103.385 58.8603 103.459 58.9786 103.538C59.0969 103.617 59.2115 103.701 59.3218 103.792C59.4315 103.882 59.5375 103.978 59.6381 104.079C59.7392 104.179 59.8348 104.285 59.9249 104.395C60.0156 104.505 60.1002 104.62 60.1792 104.738C60.2583 104.857 60.3319 104.979 60.3993 105.105C60.4661 105.23 60.5268 105.359 60.5813 105.491C60.6358 105.623 60.6843 105.756 60.7253 105.893C60.767 106.03 60.8013 106.167 60.8295 106.307C60.8571 106.447 60.8779 106.588 60.892 106.73C60.9061 106.872 60.9129 107.014 60.9129 107.156Z" fill="#4A6792"/>
<path d="M56.5608 113.685C52.9699 113.685 50.0317 110.747 50.0317 107.156C50.0317 103.566 52.9699 100.627 56.5608 100.627C60.1512 100.627 63.0893 103.566 63.0893 107.156C63.1255 110.747 60.2241 113.649 56.6332 113.685C56.597 113.685 56.597 113.685 56.5608 113.685ZM56.5608 105.016C55.4 104.98 54.4568 105.923 54.4206 107.083C54.4206 107.12 54.4206 107.12 54.4206 107.156C54.3845 108.353 55.3271 109.296 56.5241 109.332H56.5608C57.7572 109.332 58.7366 108.353 58.7366 107.156C58.7366 105.959 57.794 105.016 56.597 105.016H56.5608Z" fill="black"/>
<path d="M48.0735 93.0109C48.0735 93.1537 48.0662 93.2959 48.0521 93.4381C48.0386 93.5796 48.0171 93.7206 47.9896 93.8603C47.962 94.0001 47.927 94.138 47.886 94.2747C47.8443 94.4113 47.7965 94.5449 47.7419 94.6767C47.6874 94.8085 47.6267 94.9372 47.5593 95.0628C47.4919 95.1885 47.419 95.3104 47.3399 95.4293C47.2608 95.5476 47.1756 95.6622 47.0855 95.7726C46.9948 95.8823 46.8992 95.9883 46.7987 96.0888C46.6976 96.1893 46.5922 96.2849 46.4818 96.3756C46.3715 96.4664 46.2575 96.5509 46.1386 96.63C46.0203 96.7091 45.8984 96.7826 45.7727 96.8494C45.6471 96.9168 45.5184 96.9775 45.3866 97.032C45.2548 97.0866 45.1206 97.135 44.9846 97.1761C44.8479 97.2178 44.71 97.2521 44.5696 97.2803C44.4299 97.3078 44.2895 97.3287 44.1473 97.3428C44.0058 97.3569 43.8636 97.3636 43.7208 97.3636C43.578 97.3636 43.4358 97.3569 43.2942 97.3428C43.1526 97.3287 43.0117 97.3078 42.8719 97.2803C42.7316 97.2521 42.5937 97.2178 42.4576 97.1761C42.3209 97.135 42.1867 97.0866 42.0549 97.032C41.9238 96.9775 41.7951 96.9168 41.6688 96.8494C41.5432 96.7826 41.4212 96.7091 41.3029 96.63C41.184 96.5509 41.07 96.4664 40.9597 96.3756C40.8494 96.2849 40.744 96.1893 40.6435 96.0888C40.5423 95.9883 40.4467 95.8823 40.356 95.7726C40.2659 95.6622 40.1813 95.5476 40.1017 95.4293C40.0226 95.3104 39.9497 95.1885 39.8823 95.0628C39.8148 94.9372 39.7542 94.8085 39.6996 94.6767C39.6451 94.5449 39.5973 94.4113 39.5556 94.2747C39.5145 94.138 39.4796 94.0001 39.452 93.8603C39.4244 93.7206 39.4036 93.5796 39.3895 93.4381C39.3754 93.2959 39.3687 93.1537 39.3687 93.0109C39.3687 92.8687 39.3754 92.7265 39.3895 92.5843C39.4036 92.4427 39.4244 92.3018 39.452 92.162C39.4796 92.0223 39.5145 91.8844 39.5556 91.7477C39.5973 91.611 39.6451 91.4774 39.6996 91.3457C39.7542 91.2139 39.8148 91.0852 39.8823 90.9595C39.9497 90.8339 40.0226 90.7113 40.1017 90.593C40.1813 90.4747 40.2659 90.3601 40.356 90.2498C40.4467 90.1401 40.5423 90.0341 40.6435 89.9336C40.744 89.8324 40.8494 89.7368 40.9597 89.6467C41.07 89.556 41.184 89.4714 41.3029 89.3924C41.4212 89.3133 41.5432 89.2398 41.6688 89.173C41.7951 89.1055 41.9238 89.0449 42.0549 88.9903C42.1867 88.9358 42.3209 88.8874 42.4576 88.8463C42.5937 88.8046 42.7316 88.7703 42.8719 88.7421C43.0117 88.7145 43.1526 88.6937 43.2942 88.6796C43.4358 88.6655 43.578 88.6588 43.7208 88.6588C43.8636 88.6588 44.0058 88.6655 44.1473 88.6796C44.2895 88.6937 44.4299 88.7145 44.5696 88.7421C44.71 88.7703 44.8479 88.8046 44.9846 88.8463C45.1206 88.8874 45.2548 88.9358 45.3866 88.9903C45.5184 89.0449 45.6471 89.1055 45.7727 89.173C45.8984 89.2398 46.0203 89.3133 46.1386 89.3924C46.2575 89.4714 46.3715 89.556 46.4818 89.6467C46.5922 89.7368 46.6976 89.8324 46.7987 89.9336C46.8992 90.0341 46.9948 90.1401 47.0855 90.2498C47.1756 90.3601 47.2608 90.4747 47.3399 90.593C47.419 90.7113 47.4919 90.8339 47.5593 90.9595C47.6267 91.0852 47.6874 91.2139 47.7419 91.3457C47.7965 91.4774 47.8443 91.611 47.886 91.7477C47.927 91.8844 47.962 92.0223 47.9896 92.162C48.0171 92.3018 48.0386 92.4427 48.0521 92.5843C48.0662 92.7265 48.0735 92.8687 48.0735 93.0109Z" fill="#4A6792"/>
<path d="M43.7209 99.5398C40.13 99.5398 37.1924 96.6017 37.1924 93.0107C37.1924 89.4204 40.13 86.4822 43.7209 86.4822C47.3118 86.4822 50.2494 89.4204 50.2494 93.0107C50.2494 96.6017 47.3118 99.5398 43.7209 99.5398ZM43.7209 90.8711C42.5239 90.835 41.5807 91.7776 41.5445 92.9746V93.0107C41.5445 94.2077 42.5239 95.1871 43.7209 95.1871C44.9179 95.1871 45.8972 94.2077 45.8972 93.0107C45.8972 91.8144 44.954 90.8711 43.757 90.8711H43.7209Z" fill="black"/>
<path d="M98.7791 152.857H117.386V157.21H98.7791V152.857Z" fill="black"/>
<path d="M79.1931 152.857H91.1261V157.21H79.1931V152.857Z" fill="black"/>
<path d="M135.049 10.967H147.055V15.3192H135.049V10.967Z" fill="black"/>
<path d="M81.188 10.967H123.08V15.3192H81.188V10.967Z" fill="black"/>
</svg>
